<?xml version="1.0" encoding="utf-8"?>
<!-- Generator: Adobe Illustrator 19.1.0, SVG Export Plug-In . SVG Version: 6.00 Build 0)  -->
<svg version="1.1" id="background" xmlns="http://www.w3.org/2000/svg" xmlns:xlink="http://www.w3.org/1999/xlink" x="0px" y="0px"
	 width="573.2px" height="319.8px" viewBox="0 0 573.2 319.8" style="enable-background:new 0 0 573.2 319.8;" xml:space="preserve"
	>
<style type="text/css">
	.st0{fill:#FF9F9F;}
	.st1{fill:#CE4646;}
	.st2{fill:#B24444;}
	.st3{fill:#FF7D7D;}
	.st4{fill:#253A19;}
	.st5{fill:#1C2F12;}
	.st6{fill:#CACA10;}
	.st7{fill:#C0BF0D;}
	.st8{fill:#546B3F;}
	.st9{fill:#465A34;}
</style>
<polygon class="st0" points="304.3,186.6 329.4,144.1 383.9,144.1 359.3,186.6 "/>
<polygon class="st1" points="383.9,144.1 383.9,186.6 359.3,186.6 "/>
<polygon class="st2" points="383.9,144.1 408.6,186.6 383.9,186.6 "/>
<polygon class="st3" points="304.3,186.6 383.9,144.1 359.3,186.6 "/>
<polygon class="st0" points="209.8,189.6 242,135.1 311.9,135.1 280.4,189.6 "/>
<polygon class="st1" points="311.9,135.1 311.9,189.6 280.4,189.6 "/>
<polygon class="st2" points="311.9,135.1 343.6,189.6 311.9,189.6 "/>
<polygon class="st3" points="209.8,189.6 311.9,135.1 280.4,189.6 "/>
<polygon class="st4" points="276.8,149.9 280.5,169.8 284.2,189.6 276.8,189.6 269.4,189.6 273.1,169.8 "/>
<polygon class="st5" points="276.8,149.9 276.8,189.6 284.2,189.6 "/>
<polygon class="st6" points="244.8,102.6 252.9,146.1 261,189.6 244.8,189.6 228.5,189.6 236.7,146.1 "/>
<polygon class="st7" points="244.8,189.6 244.8,102.6 261,189.6 "/>
<polygon class="st8" points="78.5,103.8 86.5,146.7 94.5,189.6 78.5,189.6 62.5,189.6 70.5,146.7 "/>
<polygon class="st9" points="78.5,103.8 78.5,189.6 94.5,189.6 "/>
<polygon class="st8" points="262.3,120.6 268.8,155.1 275.2,189.6 262.3,189.6 249.5,189.6 255.9,155.1 "/>
<polygon class="st9" points="262.3,120.6 262.3,189.6 275.2,189.6 "/>
<polygon class="st4" points="100.2,189.6 100.2,80.6 81.3,189.6 "/>
<polygon class="st5" points="100.2,80.6 100.2,189.6 120.4,189.6 "/>
<polygon class="st6" points="60.2,138.1 65.2,165.4 70.3,192.6 60.2,192.6 50,192.6 55.1,165.4 "/>
<polygon class="st7" points="60.2,192.6 60.2,138.1 70.3,192.6 "/>
</svg>
