<?xml version="1.0" encoding="utf-8"?>
<!-- Generator: Adobe Illustrator 19.1.0, SVG Export Plug-In . SVG Version: 6.00 Build 0)  -->
<svg version="1.1" id="forground" xmlns="http://www.w3.org/2000/svg" xmlns:xlink="http://www.w3.org/1999/xlink" x="0px" y="0px"
	 width="573.2px" height="319.8px" viewBox="0 0 573.2 319.8" style="enable-background:new 0 0 573.2 319.8;" xml:space="preserve"
	>
<style type="text/css">
	.st0{fill:#FF9999;}
	.st1{fill:#CE4646;}
	.st2{fill:#B24444;}
	.st3{fill:#FF7D7D;}
	.st4{fill:#48823C;}
	.st5{fill:#5B8E4F;}
	.st6{fill:#1B2812;}
</style>
<polygon class="st0" points="81.3,189.6 123.5,118.1 215.3,118.1 174,189.6 "/>
<polygon class="st1" points="215.3,118.1 215.3,189.6 174,189.6 "/>
<polygon class="st2" points="215.3,118.1 257,189.6 215.3,189.6 "/>
<polygon class="st3" points="81.3,189.6 215.3,118.1 174,189.6 "/>
<polyline class="st4" points="277.7,187.8 394.2,181.8 566,195 573.2,211.7 417.8,211.7 277.7,187.8 "/>
<polygon class="st5" points="444.7,187.8 568.2,176.9 568.2,200.1 "/>
<polyline class="st6" points="91.2,202.3 129.4,175.8 153.3,191.4 139.1,187.8 91.2,202.3 "/>
<polyline class="st4" points="0,202.3 129.4,175.8 91.2,202.3 0,202.3 "/>
<polyline class="st4" points="91.2,202.3 129.4,175.8 264.1,195 184.4,211.7 129.4,175.8 "/>
<polyline class="st5" points="277.7,187.8 171.5,181.8 245.4,206 277.7,187.8 "/>
<rect x="0.1" y="202.3" width="565.8" height="117.6"/>
<polygon points="91.2,202.3 139.1,187.8 195.7,202.3 277.7,187.8 431.8,202.3 "/>
</svg>
