<?xml version="1.0" encoding="utf-8"?>
<!-- Generator: Adobe Illustrator 19.1.0, SVG Export Plug-In . SVG Version: 6.00 Build 0)  -->
<svg version="1.0" id="Layer_1" xmlns="http://www.w3.org/2000/svg" xmlns:xlink="http://www.w3.org/1999/xlink" x="0px" y="0px"
	 width="1726.5px" height="713.2px" viewBox="0 0 1726.5 713.2" style="enable-background:new 0 0 1726.5 713.2;"
	 xml:space="preserve">
<style type="text/css">
	.st0{fill:#FFFFFF;}
</style>
<g>
	<g>
		<path class="st0" d="M872.9,544.7c-49.1,0-89-39.9-89-89s39.9-89,89-89c49.1,0,89,39.9,89,89S921.9,544.7,872.9,544.7z
			 M872.9,400.2c-30.6,0-55.5,24.9-55.5,55.5s24.9,55.5,55.5,55.5c30.6,0,55.5-24.9,55.5-55.5S903.5,400.2,872.9,400.2z"/>
	</g>
	<g>
		<path class="st0" d="M872.9,712.3c-141.5,0-256.5-115.1-256.5-256.6s115.1-256.6,256.5-256.6c141.5,0,256.6,115.1,256.6,256.6
			S1014.3,712.3,872.9,712.3z M872.9,232.6c-123,0-223.1,100.1-223.1,223.1s100.1,223.1,223.1,223.1s223.1-100.1,223.1-223.1
			S995.9,232.6,872.9,232.6z M872.9,654.7c-109.7,0-199-89.2-199-199s89.2-199,199-199s199,89.2,199,199S982.6,654.7,872.9,654.7z
			 M872.9,290.2c-91.2,0-165.5,74.2-165.5,165.5s74.2,165.5,165.5,165.5c91.2,0,165.5-74.2,165.5-165.5S964.1,290.2,872.9,290.2z"/>
	</g>
	<g>
		<path class="st0" d="M800.6,472.4H690.7c-9.2,0-16.7-7.5-16.7-16.7s7.5-16.7,16.7-16.7h109.9c9.2,0,16.7,7.5,16.7,16.7
			S809.8,472.4,800.6,472.4z"/>
	</g>
	<g>
		<path class="st0" d="M1055,472.4H945.1c-9.2,0-16.7-7.5-16.7-16.7s7.5-16.7,16.7-16.7H1055c9.2,0,16.7,7.5,16.7,16.7
			S1064.3,472.4,1055,472.4z"/>
	</g>
	<g>
		<path class="st0" d="M872.9,400.2c-9.2,0-16.7-7.5-16.7-16.7V273.5c0-9.2,7.5-16.7,16.7-16.7s16.7,7.5,16.7,16.7v109.9
			C889.6,392.7,882.1,400.2,872.9,400.2z"/>
	</g>
	<g>
		<path class="st0" d="M872.9,654.6c-9.2,0-16.7-7.5-16.7-16.7V528c0-9.2,7.5-16.7,16.7-16.7s16.7,7.5,16.7,16.7v109.9
			C889.6,647.1,882.1,654.6,872.9,654.6z"/>
	</g>
	<g>
		<path class="st0" d="M821.8,421.3c-4.3,0-8.6-1.6-11.8-4.9l-77.7-77.7c-6.5-6.5-6.5-17.1,0-23.7c6.5-6.5,17.1-6.5,23.7,0
			l77.7,77.7c6.5,6.5,6.5,17.1,0,23.7C830.3,419.7,826.1,421.3,821.8,421.3z"/>
	</g>
	<g>
		<path class="st0" d="M1001.7,601.2c-4.3,0-8.6-1.6-11.8-4.9l-77.7-77.7c-6.5-6.5-6.5-17.1,0-23.7c6.5-6.5,17.1-6.5,23.7,0
			l77.7,77.7c6.5,6.5,6.5,17.1,0,23.7C1010.2,599.6,1006,601.2,1001.7,601.2z"/>
	</g>
	<g>
		<path class="st0" d="M924,421.3c-4.3,0-8.6-1.6-11.8-4.9c-6.5-6.5-6.5-17.1,0-23.7l77.7-77.7c6.5-6.5,17.1-6.5,23.7,0
			c6.5,6.5,6.5,17.1,0,23.7l-77.7,77.7C932.5,419.7,928.2,421.3,924,421.3z"/>
	</g>
	<g>
		<path class="st0" d="M744.1,601.2c-4.3,0-8.6-1.6-11.8-4.9c-6.5-6.5-6.5-17.1,0-23.7l77.7-77.7c6.5-6.5,17.1-6.5,23.7,0
			c6.5,6.5,6.5,17.1,0,23.7l-77.7,77.7C752.6,599.6,748.3,601.2,744.1,601.2z"/>
	</g>
	<g>
		<path class="st0" d="M1454.2,597.6c-3.5,0-7-1.1-10-3.3l-224.4-168.1h-110.5c-9.2,0-16.7-7.5-16.7-16.7s7.5-16.7,16.7-16.7h121.7
			l233.3,174.8c7.4,5.5,8.9,16,3.4,23.4C1464.3,595.2,1459.3,597.6,1454.2,597.6z"/>
	</g>
	<g>
		<path class="st0" d="M1726.5,713.2h-293.1L1168.2,571h-73c-9.2,0-16.7-7.5-16.7-16.7s7.5-16.7,16.7-16.7h81.4l265.2,142.2h251.2
			v-40.4c0-13.3-8.1-16.9-12-17.9l-228.6-24c-9.2-1-15.9-9.2-14.9-18.4c1-9.2,9.1-15.8,18.4-14.9l230.5,24.2
			c13.9,2.3,40.1,15.9,40.1,50.9V713.2z"/>
	</g>
	<g>
		<path class="st0" d="M1303.4,484.6c-0.9,0-1.9-0.1-2.9-0.2c-9.1-1.6-15.2-10.2-13.7-19.3l47.4-275.9c1.6-9.1,10.2-15.2,19.3-13.7
			c9.1,1.6,15.2,10.2,13.7,19.3l-47.4,275.9C1318.5,478.8,1311.4,484.6,1303.4,484.6z"/>
	</g>
	<g>
		<path class="st0" d="M1346,520.7l-63-47.2l52-287.4l19.2,7.9c59.7,24.6,116,91.6,102.9,167.1l-6.9,40
			c-9.2,53.2-44.9,96.6-95.4,116.2L1346,520.7z M1319.6,459.1l31.3,23.4c35.1-16.6,59.5-48.6,66.2-87.1l6.9-40
			c8.8-50.6-23.9-96.7-63.8-120.9L1319.6,459.1z"/>
	</g>
	<g>
		<path class="st0" d="M130.8,53l577.7,80.8l452,53.3l187.2,22.4c0,0,83.4,19,94.4,120.4s-93.6,171.8-93.6,171.8l92.5,69.3
			l242.5,33.9l26.2,43l-8.5,48.6h-263.7l-288.3-150.8l-72.6,21.5l27.5-75.9l5-107.8c0,0-25.2-121.8-200.5-159.7l-107.5,11.1
			L130.8,53"/>
	</g>
	<g>
		<path class="st0" d="M710.9,295.6c-1.1,0-2.1-0.1-3.2-0.3L612,276.6L112.8,172.2c-9-1.9-14.8-10.8-13-19.8
			c1.9-9,10.7-14.8,19.8-13l499,104.4l95.4,18.6c9.1,1.8,15,10.6,13.2,19.6C725.8,290,718.8,295.6,710.9,295.6z"/>
	</g>
	<g>
		<path class="st0" d="M64.4,21.6L26.7,232.2h78l18.8-169.8L64.4,21.6z M97.4,76.5L80.9,176.6c-1.3,8.2-8.4,14-16.5,14
			c-0.9,0-1.8-0.1-2.7-0.2c-9.1-1.5-15.3-10.1-13.8-19.2L64.3,71.1c1.5-9.1,10.1-15.3,19.2-13.8C92.7,58.8,98.8,67.4,97.4,76.5z"/>
	</g>
	<g>
		<path class="st0" d="M123.5,157.3l-18.8,74.9c0,0,189.3,41.1,247.6,56.9c58.2,15.8,63.7,29.6,72.8,61.8
			c9.1,32.2,33.9,48.7,33.9,48.7l133.3,21.2l5.8-102.2l1.8-58.1L123.5,157.3z M583.7,302.4l-13.9,76.4c-2.3,12.8-14.6,21.4-27.5,19
			l-77.2-14c-12.8-2.3-21.4-14.6-19-27.5l13.9-76.4c2.3-12.8,14.6-21.4,27.5-19l77.2,14C577.6,277.3,586.1,289.6,583.7,302.4z"/>
	</g>
	<g>
		<path class="st0" d="M116.3,172.5c-0.8,0-1.6-0.1-2.4-0.2c-9.2-1.3-15.5-9.8-14.2-18.9l14.5-102.8c1.3-9.1,9.8-15.5,18.9-14.2
			c9.2,1.3,15.5,9.8,14.2,18.9l-14.5,102.8C131.7,166.5,124.5,172.5,116.3,172.5z"/>
	</g>
	<g>
		<path class="st0" d="M526.5,242c-0.8,0-1.6-0.1-2.4-0.2c-9.2-1.3-15.5-9.8-14.2-18.9l14.5-102.8c1.3-9.1,9.8-15.5,18.9-14.2
			c9.2,1.3,15.5,9.8,14.2,18.9L543,227.6C541.9,236,534.7,242,526.5,242z"/>
	</g>
	<g>
		<path class="st0" d="M1487.7,412.6l-66.6-12.4c0,0,0,0,0,0l11.8-63.3c0,0,0,0,0,0l66.6,12.4c0.1,0,0.1,0.1,0.1,0.1l-11.7,63.1
			C1487.8,412.6,1487.7,412.6,1487.7,412.6z"/>
	</g>
	<g>
		<path class="st0" d="M526.5,257.2l21.4-145.9l799.8,106l-35.8,250.5l-106.6-55.6l-97.8,8.3c0,0,9.3-89.6-82.6-135.6
			c-76.8-51-61.7-53.1-141.4-58.1s-124.2,25.8-124.2,25.8l-54,31.5L526.5,257.2z"/>
	</g>
	<g>
		<circle class="st0" cx="872.9" cy="455.7" r="72.3"/>
	</g>
	<g>
		<polygon class="st0" points="91.9,203.9 32.9,197.8 62.4,33 175.7,59.3 592.2,117.2 533.7,258.3 		"/>
	</g>
	<g>
		<path class="st0" d="M16.8,257.6c-0.9,0-1.8-0.1-2.8-0.2c-9.1-1.5-15.3-10.1-13.8-19.3L37.6,14C39.1,4.9,47.7-1.3,56.8,0.2
			C66,1.8,72.1,10.4,70.6,19.5L33.2,243.6C31.9,251.8,24.8,257.6,16.8,257.6z"/>
	</g>
	<g>
		<path class="st0" d="M16.7,257.6c-9,0-16.4-7.1-16.7-16.2c-0.3-9.2,6.9-17,16.2-17.3l73.9-2.5l22.4-158.8l-65.5-31
			c-8.4-4-11.9-13.9-8-22.3c4-8.4,13.9-11.9,22.3-8l87.8,41.5l-29.8,211l-102,3.5C17.1,257.6,16.9,257.6,16.7,257.6z"/>
	</g>
	<g>
		<path class="st0" d="M633.9,452c-1.1,0-2.3-0.1-3.4-0.3l-38-7.8l-136-27.6c-17.4-1.8-48.2-17.4-48.2-65.3
			c0-30.8-29.1-43.6-34.8-45.8l-271.8-50.8c-9.1-1.7-15.1-10.4-13.4-19.5c1.7-9.1,10.4-15.1,19.5-13.4L383.1,273
			c2.4,0.8,58.6,20.1,58.6,77.9c0,27.7,14.3,31.5,18.7,32l1.8,0.3l175.1,35.6c9.1,1.9,14.9,10.7,13,19.8
			C648.7,446.5,641.7,452,633.9,452z"/>
	</g>
	<g>
		<polygon class="st0" points="452.8,398.3 426.5,355.6 459.5,230.2 608.3,278.9 584.1,414 		"/>
	</g>
	<g>
		<polygon class="st0" points="620.8,426.3 690.7,278.8 584.1,257.2 580.3,413.6 		"/>
	</g>
	<polygon class="st0" points="149.1,43.1 1354.1,194 1323.2,241.1 137.8,57 	"/>
</g>
</svg>
