<?xml version="1.0" encoding="utf-8"?>
<!-- Generator: Adobe Illustrator 19.1.0, SVG Export Plug-In . SVG Version: 6.00 Build 0)  -->
<svg version="1.1" xmlns="http://www.w3.org/2000/svg" xmlns:xlink="http://www.w3.org/1999/xlink" x="0px" y="0px" width="1920px"
	 height="1080px" viewBox="0 0 1920 1080" style="enable-background:new 0 0 1920 1080;" xml:space="preserve">
<style type="text/css">
	.st0{fill:#FF9F9F;}
	.st1{fill:#CE4646;}
	.st2{fill:#B24444;}
	.st3{fill:#FF7D7D;}
	.st4{fill:#253A19;}
	.st5{fill:#1C2F12;}
	.st6{fill:#CACA10;}
	.st7{fill:#C0BF0D;}
	.st8{fill:#546B3F;}
	.st9{fill:#465A34;}
	.st10{fill:#FF9999;}
	.st11{fill:#48823C;}
	.st12{fill:#5B8E4F;}
	.st13{fill:#1B2812;}
</style>
<g id="tent">
	<polygon class="st0" points="1016.9,624 1100.8,481.8 1283,481.8 1201,624 	"/>
	<polygon class="st1" points="1283,481.8 1283,624 1201,624 	"/>
	<polygon class="st2" points="1283,481.8 1365.7,624 1283,624 	"/>
	<polygon class="st3" points="1016.9,624 1283,481.8 1201,624 	"/>
	<polygon class="st0" points="701.2,634 808.7,451.7 1042.4,451.7 937.2,634 	"/>
	<polygon class="st1" points="1042.4,451.7 1042.4,634 937.2,634 	"/>
	<polygon class="st2" points="1042.4,451.7 1148.5,634 1042.4,634 	"/>
	<polygon class="st3" points="701.2,634 1042.4,451.7 937.2,634 	"/>
	<polygon class="st4" points="925,501.3 937.4,567.7 949.8,634 925,634 900.3,634 912.6,567.7 	"/>
	<polygon class="st5" points="925,501.3 925,634 949.8,634 	"/>
	<polygon class="st6" points="818,343 845.1,488.5 872.2,634 818,634 763.7,634 790.8,488.5 	"/>
	<polygon class="st7" points="818,634 818,343 872.2,634 	"/>
	<polygon class="st8" points="262.2,347.1 289,490.5 315.7,634 262.2,634 208.7,634 235.5,490.5 	"/>
	<polygon class="st9" points="262.2,347.1 262.2,634 315.7,634 	"/>
	<polygon class="st8" points="876.7,403.3 898.2,518.6 919.7,634 876.7,634 833.7,634 855.2,518.6 	"/>
	<polygon class="st9" points="876.7,403.3 876.7,634 919.7,634 	"/>
	<polygon class="st4" points="371,481.4 334.7,269.5 271.5,634 	"/>
	<polygon class="st5" points="334.7,269.5 334.7,537.1 371,481.4 	"/>
	<polygon class="st10" points="271.5,634 412.7,394.7 719.5,394.7 581.4,634 	"/>
	<polygon class="st1" points="719.5,394.7 719.5,634 581.4,634 	"/>
	<polygon class="st2" points="719.5,394.7 858.8,634 719.5,634 	"/>
	<polygon class="st3" points="271.5,634 719.5,394.7 581.4,634 	"/>
	<polygon class="st6" points="200.8,461.8 217.8,552.9 234.8,644 200.8,644 166.8,644 183.8,552.9 	"/>
	<polygon class="st7" points="200.8,644 200.8,461.8 234.8,644 	"/>
</g>
<g id="forground">
	<polyline class="st11" points="927.9,627.9 1326.2,607.9 1913.8,652.1 1938.6,707.7 1407.1,707.7 927.9,627.9 	"/>
	<polygon class="st12" points="1486.3,627.9 1925.3,591.2 1925.3,669.1 	"/>
	<polyline class="st13" points="304.4,676.2 432.1,587.7 512.3,640 464.9,627.9 304.4,676.2 	"/>
	<polyline class="st11" points="-0.3,676.2 432.1,587.7 304.4,676.2 -0.3,676.2 	"/>
	<polyline class="st11" points="304.4,676.2 432.1,587.7 882.5,652.1 616,707.7 432.1,587.7 	"/>
	<polyline class="st12" points="927.9,627.9 573.1,607.9 820,688.7 927.9,627.9 	"/>
	<rect x="0" y="676.2" width="1920" height="403.8"/>
	<polygon points="304.4,676.2 464.9,627.9 653.9,676.2 927.9,627.9 1443.3,676.2 	"/>
</g>
</svg>
