<?xml version="1.0" encoding="utf-8"?>
<!-- Generator: Adobe Illustrator 19.1.0, SVG Export Plug-In . SVG Version: 6.00 Build 0)  -->
<svg version="1.1" xmlns="http://www.w3.org/2000/svg" xmlns:xlink="http://www.w3.org/1999/xlink" x="0px" y="0px"
	 width="1938.9px" height="685.3px" viewBox="0 0 1938.9 685.3" style="enable-background:new 0 0 1938.9 685.3;"
	 xml:space="preserve">
<style type="text/css">
	.st0{fill:#FF9999;}
	.st1{fill:#CE4646;}
	.st2{fill:#B24444;}
	.st3{fill:#FF7D7D;}
	.st4{fill:#48823C;}
	.st5{fill:#5B8E4F;}
	.st6{fill:#1B2812;}
</style>
<g id="tent">
	<polygon class="st0" points="271.8,239.3 413,0 719.8,0 581.7,239.3 	"/>
	<polygon class="st1" points="719.8,0 719.8,239.3 581.7,239.3 	"/>
	<polygon class="st2" points="719.8,0 859.2,239.3 719.8,239.3 	"/>
	<polygon class="st3" points="271.8,239.3 719.8,0 581.7,239.3 	"/>
</g>
<g id="forground">
	<polyline class="st4" points="928.3,233.2 1326.6,213.2 1914.2,257.4 1938.9,313 1407.5,313 928.3,233.2 	"/>
	<polygon class="st5" points="1486.6,233.2 1925.7,196.6 1925.7,274.4 	"/>
	<polyline class="st6" points="304.8,281.5 432.5,193 512.7,245.4 465.2,233.2 304.8,281.5 	"/>
	<polyline class="st4" points="0,281.5 432.5,193 304.8,281.5 0,281.5 	"/>
	<polyline class="st4" points="304.8,281.5 432.5,193 882.9,257.4 616.3,313 432.5,193 	"/>
	<polyline class="st5" points="928.3,233.2 573.5,213.2 820.3,294.1 928.3,233.2 	"/>
	<rect x="0.3" y="281.5" width="1920" height="403.8"/>
	<polygon points="304.8,281.5 465.2,233.2 654.2,281.5 928.3,233.2 1443.6,281.5 	"/>
</g>
</svg>
