<?xml version="1.0" encoding="utf-8"?>
<!-- Generator: Adobe Illustrator 19.1.0, SVG Export Plug-In . SVG Version: 6.00 Build 0)  -->
<svg version="1.1" id="Layer_2" xmlns="http://www.w3.org/2000/svg" xmlns:xlink="http://www.w3.org/1999/xlink" x="0px" y="0px"
	 width="1920px" height="1080px" viewBox="560 101 1920 1080" style="enable-background:new 560 101 1920 1080;"
	 xml:space="preserve">
<style type="text/css">
	.st0{fill:#FF9999;}
	.st1{fill:#CE4646;}
	.st2{fill:#B24444;}
	.st3{fill:#FF7D7D;}
	.st4{fill:#48823C;}
	.st5{fill:#1B2812;}
	.st6{fill:#5B8E4F;}
</style>
<polygon class="st0" points="831.5,735 972.7,495.7 1279.5,495.7 1141.4,735 "/>
<polygon class="st1" points="1279.5,495.7 1279.5,735 1141.4,735 "/>
<polygon class="st2" points="1279.5,495.7 1418.8,735 1279.5,735 "/>
<polygon class="st3" points="831.5,735 1279.5,495.7 1141.4,735 "/>
<polyline class="st4" points="1487.9,728.9 1886.2,708.9 2480,777.2 2479.9,819.5 1967.1,808.7 1487.9,728.9 "/>
<polyline class="st5" points="864.4,777.2 992.1,688.7 1072.3,741 1024.9,728.9 864.4,777.2 "/>
<polyline class="st4" points="559.7,777.2 992.1,688.7 864.4,777.2 559.7,777.2 "/>
<polyline class="st4" points="864.4,777.2 992.1,688.7 1442.5,753.1 1176,808.7 992.1,688.7 "/>
<polyline class="st6" points="1487.9,728.9 1133.1,708.9 1380,789.7 1487.9,728.9 "/>
<rect x="560" y="777.2" width="1920" height="403.8"/>
<polygon points="864.4,777.2 1024.9,728.9 1213.9,777.2 1487.9,728.9 2003.3,777.2 "/>
</svg>
