<?xml version="1.0" encoding="utf-8"?>
<!-- Generator: Adobe Illustrator 19.1.0, SVG Export Plug-In . SVG Version: 6.00 Build 0)  -->
<svg version="1.1" id="Layer_4" xmlns="http://www.w3.org/2000/svg" xmlns:xlink="http://www.w3.org/1999/xlink" x="0px" y="0px"
	 width="1920px" height="1080px" viewBox="560 101 1920 1080" style="enable-background:new 560 101 1920 1080;"
	 xml:space="preserve">
<style type="text/css">
	.st0{fill:#FF9F9F;}
	.st1{fill:#CE4646;}
	.st2{fill:#B24444;}
	.st3{fill:#FF7D7D;}
	.st4{fill:#1C2F12;}
	.st5{fill:#48823C;}
	.st6{fill:#253A19;}
	.st7{fill:#CACA10;}
	.st8{fill:#C0BF0D;}
	.st9{fill:#546B3F;}
	.st10{fill:#465A34;}
	.st11{fill:#5B8E4F;}
</style>
<polygon class="st0" points="1576.9,725 1660.8,582.8 1843,582.8 1761,725 "/>
<polygon class="st1" points="1843,582.8 1843,725 1761,725 "/>
<polygon class="st2" points="1843,582.8 1925.7,725 1843,725 "/>
<polygon class="st3" points="1576.9,725 1843,582.8 1761,725 "/>
<polygon class="st4" points="1485,602.3 1485,735 1509.8,735 "/>
<polygon class="st0" points="1261.2,735 1368.7,552.7 1602.4,552.7 1497.2,735 "/>
<polygon class="st1" points="1602.4,552.7 1602.4,735 1497.2,735 "/>
<polygon class="st2" points="1602.4,552.7 1708.5,735 1602.4,735 "/>
<polygon class="st3" points="1261.2,735 1602.4,552.7 1497.2,735 "/>
<polygon class="st5" points="1186.5,735 560,1181 1166.6,1181 1660.7,1181 2480,1181 1557,735 "/>
<polygon class="st6" points="1485,602.3 1497.4,668.7 1509.8,735 1485,735 1460.3,735 1472.6,668.7 "/>
<polygon class="st7" points="1378,444 1405.1,589.5 1432.2,735 1378,735 1323.7,735 1350.8,589.5 "/>
<polygon class="st8" points="1378,735 1378,444 1432.2,735 "/>
<polygon class="st9" points="1436.7,504.3 1458.2,619.6 1479.7,735 1436.7,735 1393.7,735 1415.2,619.6 "/>
<polygon class="st10" points="1436.7,504.3 1436.7,735 1479.7,735 "/>
<polygon class="st4" points="1497.4,668.7 1485,602.3 1485,735 1509.8,735 "/>
<polygon class="st11" points="1186.5,735 2480,1181 1557,735 "/>
<polygon class="st5" points="1557,735 1915.7,707.7 2480,869.8 2480,1181 "/>
<polygon class="st11" points="1915.7,707.7 2480,788.8 2480,869.8 "/>
<polygon class="st11" points="1186.5,735 560,788.8 560,1181 "/>
</svg>
