<?xml version="1.0" encoding="utf-8"?>
<!-- Generator: Adobe Illustrator 19.1.0, SVG Export Plug-In . SVG Version: 6.00 Build 0)  -->
<svg version="1.1" id="Layer_1" xmlns="http://www.w3.org/2000/svg" xmlns:xlink="http://www.w3.org/1999/xlink" x="0px" y="0px"
	 width="1920px" height="1080px" viewBox="560 101 1920 1080" style="enable-background:new 560 101 1920 1080;"
	 xml:space="preserve">
<style type="text/css">
	.st0{fill:#48823C;}
	.st1{fill:#546B3F;}
	.st2{fill:#465A34;}
	.st3{fill:#253A19;}
	.st4{fill:#1C2F12;}
	.st5{fill:#CACA10;}
	.st6{fill:#C0BF0D;}
	.st7{fill:#5B8E4F;}
</style>
<polyline class="st0" points="1497.2,735 1702.7,725 1702.7,1181 1497.2,1181 1497.2,735 "/>
<polygon class="st1" points="822.2,448.1 849,591.5 875.7,735 822.2,735 768.7,735 795.5,591.5 "/>
<polygon class="st2" points="822.2,448.1 822.2,735 875.7,735 "/>
<polygon class="st3" points="931,735 894.7,370.5 831.5,735 "/>
<polygon class="st4" points="894.7,370.5 894.7,735 960.6,735 "/>
<polygon class="st5" points="760.8,562.8 777.8,653.9 794.8,745 760.8,745 726.8,745 743.8,653.9 "/>
<polygon class="st6" points="760.8,745 760.8,562.8 794.8,745 "/>
<polygon class="st7" points="560,695.1 960.6,735 960.6,1181 560,1181 "/>
<polygon class="st0" points="960.6,735 1158.6,700.7 1497.2,735 1497.2,1181 960.6,1181 "/>
<polygon class="st7" points="1158.6,700.7 1520,765.3 1497.2,735 "/>
<polygon class="st7" points="1702.7,725 2225.3,725 2225.3,1181 1655.4,1181 "/>
<polygon class="st0" points="2225.3,725 2480,695.1 2480,1181 1920.7,1181 "/>
</svg>
